<?xml version="1.0" encoding="iso-8859-1"?>
<svg xmlns="http://www.w3.org/2000/svg" xmlns:xlink="http://www.w3.org/1999/xlink" version="1.1" id="Layer_1" x="0px" y="0px" viewBox="0 0 512 512" xml:space="preserve" width="512px" height="512px">
<g>
	<g>
		<path d="M506.922,134.674c-7.716-18.506-27.781-42.248-79.549-50.27c-31.029-4.807-68.612-3.134-109.65,4.764V78.647    c17.606-2.065,33.098-16.31,33.098-39.378c0-20.671-16.819-37.489-37.49-37.489H198.668c-19.162,0-37.489,14.592-37.489,39.644    c0,19.186,14.489,35.041,33.098,37.224v9.242c-40.551-8.201-77.72-10.203-108.442-5.726c-51.19,7.461-71.362,30.77-79.268,49.011    c-13.09,30.2-2.397,67.653,30.087,106.592c-33.026,38.48-44.243,75.78-31.576,106.159c11.336,27.189,40.078,44.686,82.247,50.658    l-32.22,51.162c-17.612,27.963,2.536,64.474,35.59,64.474h330.61c33.047,0,53.205-36.505,35.59-64.474l-31.039-49.285    c40.415-5.849,68.177-22.733,79.577-49.034c13.09-30.2,2.397-67.653-30.087-106.592    C508.373,202.353,519.589,165.055,506.922,134.674z M317.724,123.844c39.384-8.138,76.084-10.239,104.444-5.845    c28.246,4.376,47.201,14.944,53.377,29.758c7.142,17.128-1.475,41.487-23.707,68.237c-34.483-32.599-81.181-63.007-134.114-87.242    V123.844z M317.724,166.374c43.653,21.414,81.881,47.03,110.568,74.132c-19.249,17.683-42.674,34.656-69.071,50.148l-41.497-65.89    V166.374z M182.957,306.53l42.7-67.801c1.709-2.713,2.615-5.853,2.615-9.059V78.912h55.455V229.67    c0,3.206,0.907,6.346,2.615,9.059l42.955,68.206c-23.455,11.818-48.492,22.376-73.99,31.072    C231.353,329.459,206.808,318.889,182.957,306.53z M201.762,353.212c-18.51,4.162-36.483,7.021-53.557,8.498l16.582-26.329    C176.724,341.648,189.079,347.605,201.762,353.212z M347.484,335.811l17.422,27.662c-17.9-1.648-36.793-4.848-56.267-9.513    C321.978,348.285,334.956,342.217,347.484,335.811z M195.174,39.267c0-1.926,1.567-3.494,3.494-3.494h114.664    c1.926,0,3.495,1.567,3.495,3.494v2.154c0,1.926-1.568,3.494-3.495,3.494c-12.137,0-101.575,0-114.664,0    c-1.926,0-3.494-1.567-3.494-3.494V39.267z M194.278,166.002v58.761l-41.043,65.168c-27.763-16.718-51.116-34.422-69.537-51.825    C112.536,211.611,150.748,186.711,194.278,166.002z M37.757,144.694c6.316-14.572,25.133-24.834,52.981-28.893    c28.12-4.099,64.522-1.65,103.538,6.833v5.955c-52.625,23.382-99.167,52.86-133.761,84.66    C38.762,186.22,30.437,161.581,37.757,144.694z M36.455,330.843c-7.142-17.127,1.475-41.487,23.707-68.237    c20.934,19.791,46.372,38.773,74.977,56.057l-27.586,43.802C69.633,360.22,43.998,348.933,36.455,330.843z M428.131,463.862    c3.376,5.362-0.488,12.363-6.826,12.363H90.695c-6.336,0-10.202-7-6.824-12.363l42.207-67.018    c39.095-0.52,83.496-8.492,128.976-22.972c46.594,15.556,92.14,24.198,132.049,24.845L428.131,463.862z M474.243,333.907    c-7.592,17.516-32.239,28.306-68.599,30.459l-28.311-44.953c28.197-16.634,53.341-34.93,74.16-54.067    C473.347,292.405,481.623,316.881,474.243,333.907z" fill="#43d1c0"/>
	</g>
</g>
</svg>
